<?xml version="1.0" encoding="UTF-8" standalone="no"?><!-- Generator: Gravit.io --><svg xmlns="http://www.w3.org/2000/svg" xmlns:xlink="http://www.w3.org/1999/xlink" style="isolation:isolate" viewBox="16 16 480 480" width="480pt" height="480pt"><defs><clipPath id="_clipPath_DOvfZqIJocfzwH7waQ1KIMKVw1ZvU1mO"><rect x="16" y="16" width="480" height="480"/></clipPath></defs><g clip-path="url(#_clipPath_DOvfZqIJocfzwH7waQ1KIMKVw1ZvU1mO)"><g><path d=" M 293.656 109.656 L 282.344 98.344 L 264 116.688 L 264 80 L 296 80 C 300.424 80 304 76.416 304 72 L 304 24 C 304 19.584 300.424 16 296 16 L 216 16 C 211.576 16 208 19.584 208 24 L 208 72 C 208 76.416 211.576 80 216 80 L 248 80 L 248 116.688 L 229.656 98.344 L 218.344 109.656 L 250.344 141.656 C 251.904 143.216 253.952 144 256 144 C 258.048 144 260.096 143.216 261.656 141.656 L 293.656 109.656 Z  M 224 32 L 288 32 L 288 64 L 224 64 L 224 32 Z " fill="rgb(0,0,0)"/><path d=" M 338.328 254.464 L 324.056 248.608 C 323.088 245.792 321.96 243.056 320.68 240.416 L 326.616 226.208 C 327.728 223.544 327.32 220.504 325.552 218.224 C 320.984 212.312 315.672 207.008 309.776 202.44 C 307.496 200.688 304.456 200.28 301.792 201.384 L 287.584 207.32 C 284.944 206.04 282.208 204.912 279.4 203.952 L 273.544 189.672 C 272.448 187.008 270.016 185.136 267.152 184.768 C 258.808 183.712 253.2 183.712 244.856 184.768 C 242 185.128 239.56 187 238.464 189.672 L 232.608 203.952 C 229.792 204.912 227.064 206.04 224.424 207.32 L 210.216 201.376 C 207.568 200.264 204.504 200.656 202.232 202.432 C 196.336 207 191.024 212.312 186.456 218.216 C 184.688 220.496 184.288 223.544 185.392 226.2 L 191.336 240.408 C 190.056 243.04 188.92 245.776 187.952 248.6 L 173.68 254.456 C 171.016 255.552 169.152 257.992 168.784 260.848 C 168.24 265.024 168 268.568 168 272 C 168 275.432 168.24 278.976 168.776 283.144 C 169.144 286 171.008 288.448 173.672 289.536 L 187.944 295.392 C 188.912 298.208 190.04 300.944 191.32 303.584 L 185.384 317.792 C 184.272 320.456 184.68 323.496 186.448 325.776 C 191.016 331.68 196.32 336.992 202.224 341.56 C 204.496 343.328 207.56 343.72 210.208 342.616 L 224.416 336.672 C 227.056 337.952 229.792 339.08 232.6 340.048 L 238.456 354.32 C 239.552 356.984 241.984 358.856 244.848 359.224 C 249.024 359.752 252.56 360 256 360 C 259.44 360 262.976 359.752 267.152 359.224 C 270.008 358.864 272.448 356.992 273.544 354.32 L 279.4 340.048 C 282.224 339.08 284.952 337.952 287.584 336.672 L 301.792 342.616 C 304.424 343.712 307.488 343.32 309.776 341.56 C 315.656 337 320.968 331.696 325.552 325.776 C 327.32 323.496 327.72 320.448 326.616 317.792 L 320.672 303.584 C 321.952 300.952 323.088 298.216 324.056 295.392 L 338.328 289.536 C 340.992 288.44 342.856 286 343.224 283.144 C 343.76 278.976 344 275.432 344 272 C 344 268.568 343.76 265.024 343.224 260.856 C 342.856 258 340.992 255.552 338.328 254.464 Z  M 327.824 276.552 L 314.504 282.016 C 312.232 282.952 310.512 284.872 309.848 287.24 C 308.632 291.52 306.96 295.576 304.872 299.296 C 303.672 301.448 303.52 304.032 304.464 306.296 L 309.992 319.512 C 307.968 321.808 305.808 323.976 303.512 325.992 L 290.296 320.464 C 288.024 319.528 285.448 319.664 283.296 320.872 C 279.576 322.96 275.52 324.632 271.24 325.848 C 268.872 326.512 266.952 328.232 266.024 330.512 L 260.552 343.832 C 257.352 344.064 254.648 344.064 251.44 343.832 L 245.968 330.512 C 245.04 328.24 243.12 326.52 240.752 325.848 C 236.488 324.64 232.432 322.96 228.688 320.872 C 226.536 319.672 223.968 319.536 221.696 320.472 L 208.48 326 C 206.192 323.984 204.024 321.816 202 319.52 L 207.52 306.304 C 208.464 304.032 208.32 301.456 207.12 299.312 C 205.024 295.584 203.352 291.52 202.144 287.248 C 201.48 284.888 199.76 282.96 197.488 282.024 L 184.168 276.56 C 184.056 274.952 184 273.456 184 272 C 184 270.544 184.056 269.048 184.176 267.448 L 197.496 261.984 C 199.768 261.048 201.488 259.128 202.152 256.76 C 203.368 252.48 205.04 248.424 207.128 244.704 C 208.328 242.552 208.48 239.968 207.536 237.704 L 202.008 224.488 C 204.032 222.192 206.192 220.032 208.488 218.008 L 221.704 223.536 C 223.976 224.48 226.544 224.336 228.696 223.136 C 232.44 221.04 236.496 219.368 240.752 218.168 C 243.12 217.504 245.048 215.776 245.976 213.504 L 251.448 200.176 C 254.648 199.944 257.352 199.944 260.56 200.176 L 266.032 213.504 C 266.96 215.776 268.888 217.504 271.256 218.168 C 275.512 219.368 279.568 221.04 283.312 223.136 C 285.464 224.336 288.032 224.488 290.304 223.536 L 303.52 218.016 C 305.808 220.032 307.976 222.2 310 224.496 L 304.48 237.712 C 303.536 239.984 303.68 242.56 304.88 244.704 C 306.976 248.432 308.648 252.496 309.856 256.768 C 310.52 259.128 312.24 261.056 314.512 261.992 L 327.832 267.456 C 327.944 269.048 328 270.544 328 272 C 328 273.456 327.944 274.952 327.824 276.552 Z " fill="rgb(209,0,44)"/><path d=" M 248 232 L 264 232 L 264 248 L 248 248 L 248 232 Z " fill="rgb(209,0,44)"/><path d=" M 248 296 L 264 296 L 264 312 L 248 312 L 248 296 Z " fill="rgb(209,0,44)"/><path d=" M 280 264 L 296 264 L 296 280 L 280 280 L 280 264 Z " fill="rgb(209,0,44)"/><path d=" M 216 264 L 232 264 L 232 280 L 216 280 L 216 264 Z " fill="rgb(209,0,44)"/><path d=" M 248 264 L 264 264 L 264 280 L 248 280 L 248 264 Z " fill="rgb(0,0,0)"/><path d=" M 408 240 C 410.128 240 412.16 239.16 413.656 237.656 L 443.312 208 L 449.472 208 C 452.784 217.288 461.584 224 472 224 C 485.232 224 496 213.232 496 200 C 496 186.768 485.232 176 472 176 C 461.584 176 452.784 182.712 449.472 192 L 440 192 C 437.872 192 435.84 192.84 434.344 194.344 L 404.688 224 L 392 224 L 392 184 C 392 161.944 374.056 144 352 144 L 160 144 C 137.944 144 120 161.944 120 184 L 120 224 L 107.312 224 L 77.656 194.344 C 76.16 192.84 74.128 192 72 192 L 62.528 192 C 59.216 182.712 50.416 176 40 176 C 26.768 176 16 186.768 16 200 C 16 213.232 26.768 224 40 224 C 50.416 224 59.216 217.288 62.528 208 L 68.688 208 L 98.344 237.656 C 99.84 239.16 101.872 240 104 240 L 120 240 L 120 264 L 62.528 264 C 59.216 254.712 50.416 248 40 248 C 26.768 248 16 258.768 16 272 C 16 285.232 26.768 296 40 296 C 50.416 296 59.216 289.288 62.528 280 L 120 280 L 120 304 L 104 304 C 101.872 304 99.84 304.84 98.344 306.344 L 68.688 336 L 62.528 336 C 59.216 326.712 50.416 320 40 320 C 26.768 320 16 330.768 16 344 C 16 357.232 26.768 368 40 368 C 50.416 368 59.216 361.288 62.528 352 L 72 352 C 74.128 352 76.16 351.16 77.656 349.656 L 107.312 320 L 120 320 L 120 360 C 120 382.056 137.944 400 160 400 L 216 400 L 216 424 L 192 424 C 188.664 424 185.68 426.064 184.504 429.184 C 183.336 432.304 184.224 435.824 186.728 438.016 L 250.728 494.016 C 252.24 495.336 254.12 496 256 496 C 257.88 496 259.76 495.336 261.264 494.016 L 325.264 438.016 C 327.768 435.824 328.664 432.304 327.488 429.184 C 326.32 426.064 323.336 424 320 424 L 296 424 L 296 400 L 352 400 C 374.056 400 392 382.056 392 360 L 392 320 L 404.688 320 L 434.344 349.656 C 435.84 351.16 437.872 352 440 352 L 449.472 352 C 452.784 361.288 461.584 368 472 368 C 485.232 368 496 357.232 496 344 C 496 330.768 485.232 320 472 320 C 461.584 320 452.784 326.712 449.472 336 L 443.312 336 L 413.656 306.344 C 412.16 304.84 410.128 304 408 304 L 392 304 L 392 280 L 449.472 280 C 452.784 289.288 461.584 296 472 296 C 485.232 296 496 285.232 496 272 C 496 258.768 485.232 248 472 248 C 461.584 248 452.784 254.712 449.472 264 L 392 264 L 392 240 L 408 240 Z  M 472 192 C 476.416 192 480 195.592 480 200 C 480 204.408 476.416 208 472 208 C 467.584 208 464 204.408 464 200 C 464 195.592 467.584 192 472 192 Z  M 40 208 C 35.584 208 32 204.408 32 200 C 32 195.592 35.584 192 40 192 C 44.416 192 48 195.592 48 200 C 48 204.408 44.416 208 40 208 Z  M 40 280 C 35.584 280 32 276.408 32 272 C 32 267.592 35.584 264 40 264 C 44.416 264 48 267.592 48 272 C 48 276.408 44.416 280 40 280 Z  M 40 352 C 35.584 352 32 348.408 32 344 C 32 339.592 35.584 336 40 336 C 44.416 336 48 339.592 48 344 C 48 348.408 44.416 352 40 352 Z  M 288 440 L 298.712 440 L 256 477.368 L 213.288 440 L 224 440 C 228.424 440 232 436.416 232 432 L 232 400 L 280 400 L 280 432 C 280 436.416 283.576 440 288 440 Z  M 376 360 C 376 373.232 365.232 384 352 384 L 160 384 C 146.768 384 136 373.232 136 360 L 136 184 C 136 170.768 146.768 160 160 160 L 352 160 C 365.232 160 376 170.768 376 184 L 376 360 Z  M 472 336 C 476.416 336 480 339.592 480 344 C 480 348.408 476.416 352 472 352 C 467.584 352 464 348.408 464 344 C 464 339.592 467.584 336 472 336 Z  M 472 264 C 476.416 264 480 267.592 480 272 C 480 276.408 476.416 280 472 280 C 467.584 280 464 276.408 464 272 C 464 267.592 467.584 264 472 264 Z " fill="rgb(0,0,0)"/></g></g></svg>