<?xml version="1.0" encoding="UTF-8" standalone="no"?><!-- Generator: Gravit.io --><svg xmlns="http://www.w3.org/2000/svg" xmlns:xlink="http://www.w3.org/1999/xlink" style="isolation:isolate" viewBox="0 0 512.001 512.002" width="512.001pt" height="512.002pt"><defs><clipPath id="_clipPath_oTdxjaAxtan0URrnr2HfTHhDIlJT8HzV"><rect x="0" y="0" width="512.001" height="512.002"/></clipPath></defs><g clip-path="url(#_clipPath_oTdxjaAxtan0URrnr2HfTHhDIlJT8HzV)"><g><g><g><path d=" M 512.001 255.969 C 511.99 250.776 509.293 245.958 504.872 243.232 L 452.838 211.156 L 504.927 178.735 C 509.32 176.001 511.993 171.196 512.001 166.023 C 512.009 160.849 509.35 156.036 504.965 153.289 L 263.965 2.289 C 259.094 -0.763 252.907 -0.763 248.036 2.289 L 7.036 153.289 C 2.652 156.036 -0.007 160.849 0 166.023 C 0.008 171.197 2.681 176.002 7.074 178.735 L 58.806 210.933 L 7.051 243.282 C 2.661 246.026 -0.004 250.839 0.001 256.016 C 0.006 261.193 2.68 266.001 7.075 268.737 L 58.807 300.935 L 7.051 333.282 C 2.668 336.022 0.004 340.825 0.001 345.994 C -0.002 351.163 2.657 355.969 7.037 358.713 L 248.037 509.713 C 250.473 511.239 253.237 512.002 256.001 512.002 C 258.765 512.002 261.53 511.239 263.965 509.713 L 504.965 358.713 C 509.359 355.96 512.02 351.132 512.001 345.947 C 511.982 340.762 509.286 335.954 504.872 333.233 L 452.838 301.157 L 504.927 268.736 C 509.336 265.992 512.012 261.162 512.001 255.969 Z  M 43.32 165.96 L 256.001 32.703 L 468.682 165.96 C 466.638 167.232 262.096 294.54 256.001 298.334 L 43.32 165.96 L 43.32 165.96 Z  M 468.584 346.106 L 256.001 479.301 L 43.278 346.018 L 87.167 318.587 L 248.075 418.737 C 250.501 420.247 253.251 421.002 256.001 421.002 C 258.751 421.002 261.501 420.247 263.927 418.737 L 424.391 318.863 L 468.584 346.106 L 468.584 346.106 Z  M 256.001 388.334 L 43.345 255.976 L 87.167 228.587 L 248.075 328.737 C 250.501 330.247 253.251 331.002 256.001 331.002 C 258.751 331.002 261.501 330.247 263.927 328.737 L 424.391 228.863 L 468.516 256.063 C 467.297 256.822 261.631 384.829 256.001 388.334 Z " fill="rgb(0,0,0)"/></g></g></g><path d=" M 42 256 L 87 228 L 252 330 L 265 327 L 279 319 L 425 228 L 470 256 L 255 390 L 42 256 Z " fill="rgb(209,0,44)" vector-effect="non-scaling-stroke" stroke-width="1" stroke="rgb(0,0,0)" stroke-linejoin="miter" stroke-linecap="square" stroke-miterlimit="3"/></g></svg>