<?xml version="1.0" encoding="UTF-8" standalone="no"?><!-- Generator: Gravit.io --><svg xmlns="http://www.w3.org/2000/svg" xmlns:xlink="http://www.w3.org/1999/xlink" style="isolation:isolate" viewBox="0 24.04 512 463.92" width="512pt" height="463.92pt"><defs><clipPath id="_clipPath_FxxIIsA0lOHNJEurDOZs2Jlx5oL6bXC6"><rect x="0" y="24.04" width="512" height="463.92"/></clipPath></defs><g clip-path="url(#_clipPath_FxxIIsA0lOHNJEurDOZs2Jlx5oL6bXC6)"><g><path d=" M 288 439.96 L 296 479.96 L 216.08 479.96 L 224.08 439.96 L 288 439.96 Z " fill="rgb(84,92,102)"/><path d=" M 368 344.04 L 368 407.96 L 144.488 407.96 L 144.08 407.96 L 144.08 344.04 L 144.08 280.04 C 144.08 271.24 151.28 264.04 160.08 264.04 L 352 264.04 C 360.808 264.04 368 271.24 368 280.04 L 368 344.04 Z " fill="rgb(232,232,232)"/><path d=" M 368 407.96 L 368 423.96 C 368 432.76 360.808 439.96 352 439.96 L 288 439.96 L 224.08 439.96 L 160.08 439.96 C 151.28 439.96 144.08 432.76 144.08 423.96 L 144.08 407.96 L 144.488 407.96 L 368 407.96 Z " fill="rgb(101,109,120)"/><path d=" M 394 120.12 C 454.96 121.168 504 170.84 504 232.04 C 504 293.88 453.92 344.04 392 344.04 L 368.08 344.04 L 368 344.04 L 368 280.04 C 368 271.24 360.808 264.04 352 264.04 L 160.08 264.04 C 151.28 264.04 144.08 271.24 144.08 280.04 L 144.08 344.04 L 144 344.04 L 96 344.04 C 47.448 344.04 8 304.6 8 256.04 C 8 207.4 47.448 168.04 96 168.04 L 104.88 168.04 C 112.88 91.64 177.52 32.04 256 32.04 C 317.128 32.04 369.84 68.12 394 120.12 Z " fill="rgb(230,233,237)"/><path d=" M 96 352.04 C 43.064 352.04 0 308.976 0 256.04 C 0 203.104 43.064 160.04 96 160.04 C 100.424 160.04 104 163.616 104 168.04 C 104 172.464 100.424 176.04 96 176.04 C 51.888 176.04 16 211.928 16 256.04 C 16 300.152 51.888 336.04 96 336.04 C 100.424 336.04 104 339.616 104 344.04 C 104 348.464 100.424 352.04 96 352.04 Z " fill="rgb(0,0,0)"/><path d=" M 392 352.04 C 387.576 352.04 384 348.464 384 344.04 C 384 339.616 387.576 336.04 392 336.04 C 449.344 336.04 496 289.384 496 232.04 C 496 175.624 450.088 129.016 393.648 128.136 C 389.232 128.064 385.704 124.424 385.776 120.008 C 385.848 115.592 389.68 111.72 393.904 112.136 C 459.024 113.152 512 166.936 512 232.04 C 512 298.208 458.168 352.04 392 352.04 Z " fill="rgb(0,0,0)"/><path d=" M 143.992 352.04 L 96 352.04 C 91.576 352.04 88 348.464 88 344.04 C 88 339.616 91.576 336.04 96 336.04 L 143.992 336.04 C 148.416 336.04 151.992 339.616 151.992 344.04 C 151.992 348.464 148.416 352.04 143.992 352.04 Z " fill="rgb(0,0,0)"/><path d=" M 392 352.04 L 368.008 352.04 C 363.584 352.04 360.008 348.464 360.008 344.04 C 360.008 339.616 363.584 336.04 368.008 336.04 L 392 336.04 C 396.424 336.04 400 339.616 400 344.04 C 400 348.464 396.424 352.04 392 352.04 Z " fill="rgb(0,0,0)"/><path d=" M 408 192.04 C 403.576 192.04 400 188.464 400 184.04 C 400 173.76 398.912 163.512 396.776 153.584 C 382.616 87.792 323.416 40.04 256 40.04 C 176.6 40.04 112 104.64 112 184.04 C 112 188.464 108.424 192.04 104 192.04 C 99.576 192.04 96 188.464 96 184.04 C 96 95.816 167.776 24.04 256 24.04 C 330.896 24.04 396.68 77.104 412.416 150.216 C 414.8 161.24 416 172.624 416 184.04 C 416 188.464 412.424 192.04 408 192.04 Z " fill="rgb(0,0,0)"/><path d=" M 104.832 176.04 L 96 176.04 C 91.576 176.04 88 172.464 88 168.04 C 88 163.616 91.576 160.04 96 160.04 L 104.832 160.04 C 109.256 160.04 112.832 163.616 112.832 168.04 C 112.832 172.464 109.256 176.04 104.832 176.04 Z " fill="rgb(0,0,0)"/><path d=" M 288.008 232.016 C 283.584 232.016 280.008 228.44 280.008 224.016 L 280.008 144 C 280.008 139.576 283.584 136 288.008 136 C 292.432 136 296.008 139.576 296.008 144 L 296.008 224.016 C 296.008 228.44 292.432 232.016 288.008 232.016 Z " fill="rgb(209,0,44)"/><path d=" M 304.008 168 C 301.96 168 299.912 167.216 298.352 165.656 L 282.352 149.656 C 279.224 146.528 279.224 141.472 282.352 138.344 C 285.48 135.216 290.536 135.216 293.664 138.344 L 309.664 154.344 C 312.792 157.472 312.792 162.528 309.664 165.656 C 308.104 167.216 306.056 168 304.008 168 Z " fill="rgb(209,0,44)"/><path d=" M 272.008 168 C 269.96 168 267.912 167.216 266.352 165.656 C 263.224 162.528 263.224 157.472 266.352 154.344 L 282.352 138.344 C 285.48 135.216 290.536 135.216 293.664 138.344 C 296.792 141.472 296.792 146.528 293.664 149.656 L 277.664 165.656 C 276.104 167.216 274.056 168 272.008 168 Z " fill="rgb(209,0,44)"/><path d=" M 223.984 232.016 C 219.56 232.016 215.984 228.44 215.984 224.016 L 215.984 144 C 215.984 139.576 219.56 136 223.984 136 C 228.408 136 231.984 139.576 231.984 144 L 231.984 224.016 C 231.984 228.44 228.408 232.016 223.984 232.016 Z " fill="rgb(209,0,44)"/><path d=" M 223.984 232.016 C 221.936 232.016 219.888 231.232 218.328 229.672 L 202.328 213.672 C 199.2 210.544 199.2 205.488 202.328 202.36 C 205.456 199.232 210.512 199.232 213.64 202.36 L 229.64 218.36 C 232.768 221.488 232.768 226.544 229.64 229.672 C 228.08 231.232 226.032 232.016 223.984 232.016 Z " fill="rgb(209,0,44)"/><path d=" M 223.984 232.016 C 221.936 232.016 219.888 231.232 218.328 229.672 C 215.2 226.544 215.2 221.488 218.328 218.36 L 234.328 202.36 C 237.456 199.232 242.512 199.232 245.64 202.36 C 248.768 205.488 248.768 210.544 245.64 213.672 L 229.64 229.672 C 228.08 231.232 226.032 232.016 223.984 232.016 Z " fill="rgb(209,0,44)"/><path d=" M 256.24 431.96 C 251.816 431.96 248.2 428.384 248.2 423.96 C 248.2 419.536 251.736 415.96 256.152 415.96 L 256.24 415.96 C 260.656 415.96 264.24 419.536 264.24 423.96 C 264.24 428.384 260.656 431.96 256.24 431.96 Z " fill="rgb(0,0,0)"/><path d=" M 367.936 415.96 L 144.44 415.96 C 140.016 415.96 136.44 412.384 136.44 407.96 C 136.44 403.536 140.016 399.96 144.44 399.96 L 367.944 399.96 C 372.368 399.96 375.944 403.536 375.944 407.96 C 375.944 412.384 372.36 415.96 367.936 415.96 Z " fill="rgb(0,0,0)"/><path d=" M 351.936 447.96 L 160.064 447.96 C 146.832 447.96 136.064 437.192 136.064 423.96 L 136.064 280.056 C 136.064 266.824 146.832 256.056 160.064 256.056 L 351.936 256.056 C 365.168 256.056 375.936 266.824 375.936 280.056 L 375.936 423.96 C 375.936 437.192 365.168 447.96 351.936 447.96 Z  M 160.064 272.056 C 155.648 272.056 152.064 275.64 152.064 280.056 L 152.064 423.96 C 152.064 428.376 155.648 431.96 160.064 431.96 L 351.936 431.96 C 356.352 431.96 359.936 428.376 359.936 423.96 L 359.936 280.056 C 359.936 275.64 356.352 272.056 351.936 272.056 L 160.064 272.056 Z " fill="rgb(0,0,0)"/><path d=" M 216.016 487.96 C 215.496 487.96 214.968 487.912 214.44 487.8 C 210.112 486.936 207.296 482.72 208.168 478.384 L 216.168 438.384 C 217.032 434.04 221.248 431.216 225.584 432.112 C 229.912 432.976 232.728 437.192 231.856 441.528 L 223.856 481.528 C 223.096 485.336 219.752 487.96 216.016 487.96 Z " fill="rgb(0,0,0)"/><path d=" M 295.984 487.96 C 292.248 487.96 288.904 485.336 288.152 481.528 L 280.152 441.528 C 279.288 437.192 282.096 432.984 286.424 432.112 C 290.816 431.224 294.976 434.056 295.84 438.384 L 303.84 478.384 C 304.704 482.72 301.896 486.928 297.568 487.8 C 297.032 487.912 296.504 487.96 295.984 487.96 Z " fill="rgb(0,0,0)"/><path d=" M 312 487.96 L 200 487.96 C 195.576 487.96 192 484.384 192 479.96 C 192 475.536 195.576 471.96 200 471.96 L 312 471.96 C 316.424 471.96 320 475.536 320 479.96 C 320 484.384 316.424 487.96 312 487.96 Z " fill="rgb(0,0,0)"/></g></g></svg>