<?xml version="1.0" encoding="UTF-8" standalone="no"?><!-- Generator: Gravit.io --><svg xmlns="http://www.w3.org/2000/svg" xmlns:xlink="http://www.w3.org/1999/xlink" style="isolation:isolate" viewBox="120 8 272 496" width="272pt" height="496pt"><defs><clipPath id="_clipPath_id63rLzXi0Xf01Llp5pHWynPWgw755Ji"><rect x="120" y="8" width="272" height="496"/></clipPath></defs><g clip-path="url(#_clipPath_id63rLzXi0Xf01Llp5pHWynPWgw755Ji)"><g><path d=" M 360 8 L 152 8 C 134.336 8.023 120.023 22.336 120 40 L 120 472 C 120.023 489.664 134.336 503.977 152 504 L 360 504 C 377.664 503.977 391.977 489.664 392 472 L 392 40 C 391.977 22.336 377.664 8.023 360 8 L 360 8 Z  M 293.44 24 L 288.94 40 L 222.25 40 L 218.25 24 L 293.44 24 Z  M 376 472 C 375.988 480.832 368.832 487.988 360 488 L 152 488 C 143.168 487.988 136.012 480.832 136 472 L 136 40 C 136.012 31.168 143.168 24.012 152 24 L 201.75 24 L 208.24 49.94 C 209.13 53.501 212.329 55.999 216 56 L 295 56 C 298.583 56 301.728 53.618 302.7 50.17 L 310.06 24 L 360 24 C 368.832 24.012 375.988 31.168 376 40 L 376 472 Z " fill="rgb(0,0,0)"/><path d=" M 216 456 L 160 456 C 155.582 456 152 459.582 152 464 C 152 468.418 155.582 472 160 472 L 216 472 C 220.418 472 224 468.418 224 464 C 224 459.582 220.418 456 216 456 Z " fill="rgb(0,0,0)"/><path d=" M 248 456 L 240 456 C 235.582 456 232 459.582 232 464 C 232 468.418 235.582 472 240 472 L 248 472 C 252.418 472 256 468.418 256 464 C 256 459.582 252.418 456 248 456 Z " fill="rgb(0,0,0)"/><path d=" M 284.116 209.14 C 282.297 208.048 280.118 207.724 278.06 208.239 C 276.001 208.753 274.232 210.065 273.14 211.884 L 225.14 291.884 C 222.867 295.673 224.095 300.587 227.884 302.86 C 231.673 305.133 236.587 303.905 238.86 300.116 L 286.86 220.116 C 287.952 218.297 288.276 216.118 287.761 214.06 C 287.247 212.001 285.935 210.232 284.116 209.14 Z " fill="rgb(209,0,44)"/><path d=" M 310.247 211 C 307.486 207.55 302.45 206.992 299 209.753 C 295.55 212.514 294.992 217.55 297.753 221 L 325.753 256 L 297.753 291 C 294.992 294.45 295.55 299.486 299 302.247 C 302.45 305.008 307.486 304.45 310.247 301 L 342.247 261 C 344.587 258.077 344.587 253.923 342.247 251 L 310.247 211 Z " fill="rgb(209,0,44)"/><path d=" M 201.753 301 C 204.514 304.45 209.55 305.008 213 302.247 C 216.45 299.486 217.008 294.45 214.247 291 L 186.247 256 L 214.247 221 C 216.033 218.768 216.493 215.753 215.454 213.09 C 214.414 210.427 212.033 208.521 209.207 208.09 C 206.381 207.659 203.539 208.768 201.753 211 L 169.753 251 C 167.413 253.923 167.413 258.077 169.753 261 L 201.753 301 Z " fill="rgb(209,0,44)"/></g></g></svg>