<?xml version="1.0" encoding="UTF-8" standalone="no"?><!-- Generator: Gravit.io --><svg xmlns="http://www.w3.org/2000/svg" xmlns:xlink="http://www.w3.org/1999/xlink" style="isolation:isolate" viewBox="0 25 424 374.086" width="424pt" height="374.086pt"><defs><clipPath id="_clipPath_IkDD4SaKKdHg2YC1FRN96WYrSmHcMbMD"><rect x="0" y="25" width="424" height="374.086"/></clipPath></defs><g clip-path="url(#_clipPath_IkDD4SaKKdHg2YC1FRN96WYrSmHcMbMD)"><g><path d=" M 167.289 297.133 C 165.688 297.133 164.074 296.582 162.758 295.461 L 117.461 256.891 C 115.898 255.559 115 253.613 115 251.559 C 115 249.508 115.902 247.563 117.461 246.23 L 162.758 207.66 C 165.699 205.152 170.117 205.508 172.625 208.449 C 175.129 211.395 174.777 215.813 171.832 218.316 L 132.797 251.559 L 171.832 284.801 C 174.777 287.309 175.129 291.727 172.625 294.668 C 171.238 296.297 169.27 297.133 167.289 297.133 Z " fill="rgb(209,0,44)"/><path d=" M 256.711 297.133 C 254.73 297.133 252.762 296.297 251.379 294.668 C 248.871 291.727 249.227 287.309 252.168 284.801 L 291.203 251.559 L 252.168 218.316 C 249.227 215.813 248.871 211.395 251.379 208.449 C 253.883 205.508 258.305 205.152 261.242 207.66 L 306.539 246.23 C 308.102 247.563 309 249.508 309 251.559 C 309 253.613 308.102 255.559 306.539 256.891 L 261.242 295.461 C 259.926 296.582 258.313 297.133 256.711 297.133 L 256.711 297.133 Z " fill="rgb(209,0,44)"/><path d=" M 195.965 326.063 C 195.484 326.063 195 326.012 194.512 325.91 C 190.73 325.113 188.309 321.398 189.105 317.617 L 217.336 183.582 C 218.133 179.801 221.844 177.379 225.629 178.176 C 229.41 178.973 231.832 182.684 231.035 186.469 L 202.805 320.504 C 202.109 323.801 199.203 326.063 195.965 326.063 L 195.965 326.063 Z " fill="rgb(209,0,44)"/><path d=" M 377 399.086 L 47 399.086 C 21.086 399.086 0 378.004 0 352.086 L 0 72 C 0 46.086 21.086 25 47 25 L 377 25 C 402.914 25 424 46.086 424 72 L 424 352.086 C 424 378.004 402.914 399.086 377 399.086 Z  M 47 39 C 28.805 39 14 53.805 14 72 L 14 352.086 C 14 370.281 28.805 385.086 47 385.086 L 377 385.086 C 395.195 385.086 410 370.281 410 352.086 L 410 72 C 410 53.805 395.195 39 377 39 L 47 39 Z " fill="rgb(0,0,0)"/><path d=" M 417 137.09 L 7 137.09 C 3.133 137.09 0 133.957 0 130.09 C 0 126.227 3.133 123.09 7 123.09 L 417 123.09 C 420.867 123.09 424 126.227 424 130.09 C 424 133.957 420.867 137.09 417 137.09 Z " fill="rgb(0,0,0)"/><path d=" M 119.602 103.594 C 107.391 103.594 97.449 93.652 97.449 81.441 C 97.449 69.227 107.391 59.289 119.602 59.289 C 131.816 59.289 141.754 69.227 141.754 81.441 C 141.754 93.652 131.816 103.594 119.602 103.594 Z  M 119.602 73.289 C 115.109 73.289 111.449 76.945 111.449 81.441 C 111.449 85.938 115.109 89.594 119.602 89.594 C 124.098 89.594 127.754 85.938 127.754 81.441 C 127.754 76.945 124.098 73.289 119.602 73.289 Z " fill="rgb(0,0,0)"/><path d=" M 51.539 103.379 C 39.324 103.379 29.387 93.441 29.387 81.227 C 29.387 69.012 39.324 59.074 51.539 59.074 C 63.754 59.074 73.691 69.012 73.691 81.227 C 73.691 93.441 63.754 103.379 51.539 103.379 Z  M 51.539 73.074 C 47.047 73.074 43.387 76.734 43.387 81.227 C 43.387 85.723 47.047 89.379 51.539 89.379 C 56.035 89.379 59.691 85.723 59.691 81.227 C 59.691 76.734 56.035 73.074 51.539 73.074 Z " fill="rgb(0,0,0)"/><path d=" M 187.664 103.805 C 175.453 103.805 165.516 93.867 165.516 81.652 C 165.516 69.441 175.453 59.504 187.664 59.504 C 199.879 59.504 209.816 69.441 209.816 81.652 C 209.816 93.867 199.879 103.805 187.664 103.805 Z  M 187.664 73.5 C 183.172 73.5 179.516 77.156 179.516 81.652 C 179.516 86.148 183.172 89.805 187.664 89.805 C 192.16 89.805 195.816 86.148 195.816 81.652 C 195.816 77.156 192.16 73.5 187.664 73.5 Z " fill="rgb(0,0,0)"/></g></g></svg>